# Blender v2.93.1 OBJ File: 'fuente.blend'
# www.blender.org
mtllib fuente.mtl
o Cube_Cube.001
v -3.000000 0.000000 3.000000
v -0.301509 1.467094 0.096050
v -3.000000 0.000000 -3.000000
v -0.096050 1.341462 -0.301509
v 3.000000 0.000000 3.000000
v 0.096050 1.341462 0.301509
v 3.000000 -0.007111 -3.000000
v 0.301509 1.190630 -0.096050
v -1.945696 2.000000 0.619828
v -0.619828 1.866782 -1.945696
v 1.945696 0.983155 -0.619828
v 0.619828 1.866782 1.945696
v -1.631022 1.843202 0.519585
v -0.519585 1.625345 -1.631022
v 1.631022 0.826567 -0.519585
v 0.519585 1.625345 1.631022
v -0.141654 1.559581 0.045126
v -0.045126 1.500812 -0.141654
v 0.141654 1.430254 -0.045126
v 0.045126 1.500812 0.141654
vt 0.625000 0.000000
vt 0.375000 0.250000
vt 0.375000 0.000000
vt 0.625000 0.500000
vt 0.375000 0.500000
vt 0.375000 0.750000
vt 0.625000 0.750000
vt 0.375000 1.000000
vt 0.125000 0.500000
vt 0.125000 0.750000
vt 0.769370 0.644370
vt 0.769370 0.605630
vt 0.769370 0.605630
vt 0.854784 0.729784
vt 0.875000 0.500000
vt 0.875000 0.750000
vt 0.854784 0.520216
vt 0.645216 0.729784
vt 0.645216 0.520216
vt 0.730630 0.605630
vt 0.730630 0.644370
vt 0.730630 0.644370
vt 0.730630 0.605630
vt 0.769370 0.644370
vt 0.625000 0.250000
vt 0.625000 1.000000
vn -0.8846 0.4663 0.0000
vn 0.0011 0.9235 -0.3837
vn 0.6836 0.7299 -0.0009
vn 0.0000 0.4918 0.8707
vn 0.0000 -1.0000 0.0000
vn -0.5485 0.6730 -0.4962
vn 0.4886 0.8472 0.2085
vn -0.0489 0.7848 0.6178
vn -0.5076 0.6884 -0.5180
vn 0.3954 0.6635 -0.6351
vn 0.2870 0.9566 0.0514
vn 0.3049 0.9466 0.1050
vn 0.1767 0.9490 -0.2612
vn 0.4311 0.8446 -0.3177
vn 0.4085 0.9034 -0.1301
vn -0.1604 0.6742 0.7209
vn 0.5397 0.5034 -0.6747
vn 0.8299 0.5044 0.2384
vn -0.5021 0.8105 -0.3016
vn 0.4423 -0.0586 -0.8949
vn 0.6058 0.7946 0.0394
vn -0.2467 0.7930 0.5570
vn -0.0012 -1.0000 0.0012
vn -0.5479 0.6742 -0.4953
vn 0.6899 0.6635 0.2893
vn -0.1144 0.6884 0.7162
vn -0.3973 0.7848 -0.4756
vn 0.2780 0.8472 -0.4527
vn 0.5354 0.8446 0.0098
vn 0.2952 0.9490 0.1109
vn 0.1880 0.9466 -0.2620
vn 0.2044 0.9566 -0.2079
vn 0.3503 0.9300 -0.1116
vn -0.1605 0.6730 0.7220
vn 0.5391 0.5044 -0.6745
vn 0.8305 0.5034 0.2382
usemtl None
s off
f 9/1/1 3/2/1 1/3/1
f 3/2/2 11/4/2 7/5/2
f 11/4/3 5/6/3 7/5/3
f 12/7/4 1/8/4 5/6/4
f 3/9/5 5/6/5 1/10/5
f 2/11/6 18/12/6 4/13/6
f 13/14/7 10/15/7 9/16/7
f 14/17/8 11/4/8 10/15/8
f 16/18/9 11/4/9 15/19/9
f 13/14/10 12/7/10 16/18/10
f 2/11/11 14/17/11 13/14/11
f 8/20/12 14/17/12 4/13/12
f 8/20/13 16/18/13 15/19/13
f 2/11/14 16/18/14 6/21/14
f 18/12/15 20/22/15 19/23/15
f 2/11/16 20/22/16 17/24/16
f 4/13/17 19/23/17 8/20/17
f 6/21/18 19/23/18 20/22/18
f 9/1/19 10/25/19 3/2/19
f 3/2/20 10/25/20 11/4/20
f 11/4/21 12/7/21 5/6/21
f 12/7/22 9/26/22 1/8/22
f 3/9/23 7/5/23 5/6/23
f 2/11/24 17/24/24 18/12/24
f 13/14/25 14/17/25 10/15/25
f 14/17/26 15/19/26 11/4/26
f 16/18/27 12/7/27 11/4/27
f 13/14/28 9/16/28 12/7/28
f 2/11/29 4/13/29 14/17/29
f 8/20/30 15/19/30 14/17/30
f 8/20/31 6/21/31 16/18/31
f 2/11/32 13/14/32 16/18/32
f 18/12/33 17/24/33 20/22/33
f 2/11/34 6/21/34 20/22/34
f 4/13/35 18/12/35 19/23/35
f 6/21/36 8/20/36 19/23/36
