# Blender v2.93.1 OBJ File: 'pino.blend'
# www.blender.org
mtllib pino.mtl
o Icosphere
v 0.692297 0.447220 0.566321
v -0.324673 0.447220 0.833416
v -0.892956 0.447220 -0.051233
v -0.227213 0.447220 -0.865083
v 0.752535 0.447216 -0.483415
v 0.000000 2.521530 0.000000
v 0.967196 0.000000 -0.254032
v 0.633168 0.000000 -0.774014
v 0.540475 0.000000 0.841360
v 0.931793 0.000000 0.362991
v -0.633168 0.000000 0.774014
v -0.057286 0.000000 0.998358
v -0.931793 0.000000 -0.362991
v -0.967196 0.000000 0.254032
v 0.057286 0.000000 -0.998358
v -0.540475 0.000000 -0.841360
v 0.849251 0.525736 0.048728
v 0.216083 0.525738 0.822744
v -0.715701 0.525736 0.459754
v -0.658418 0.525738 -0.538596
v 0.308779 0.525736 -0.792627
v 0.406919 1.245280 0.332873
v 0.442328 1.245278 -0.284144
v -0.190837 1.245280 0.489866
v -0.524862 1.245280 -0.030114
v -0.133551 1.245280 -0.508479
v 0.419930 1.042656 0.643011
v -0.481775 1.042656 0.598078
v -0.717685 1.042656 -0.273371
v 0.038214 1.042656 -0.767035
v 0.741306 1.042652 -0.200680
v 0.000000 2.823738 0.000000
v 0.857575 0.658656 0.042726
v 0.718910 0.658656 -0.469497
v 0.224367 0.658656 0.828806
v 0.668677 0.658656 0.538638
v -0.718910 0.658656 0.469497
v -0.305644 0.658656 0.802397
v -0.668677 0.658656 -0.538638
v -0.857575 0.658656 -0.042726
v 0.305644 0.658656 -0.802397
v -0.224367 0.658656 -0.828806
v 0.682558 1.110073 0.259993
v -0.036352 1.110075 0.729493
v -0.705022 1.110073 0.190857
v -0.399383 1.110075 -0.611534
v 0.458193 1.110073 -0.568807
v 0.246826 1.727901 0.377949
v 0.435728 1.727899 -0.117956
v -0.283178 1.727901 0.351539
v -0.421842 1.727901 -0.160682
v 0.022462 1.727901 -0.450849
v 0.360837 1.647889 0.524122
v -0.386965 1.647889 0.505139
v -0.599997 1.647889 -0.211923
v 0.016141 1.647889 -0.636119
v 0.609975 1.647886 -0.181218
v 0.000000 3.123624 0.000000
v 0.711205 1.329722 0.018047
v 0.585988 1.329722 -0.403430
v 0.202608 1.329722 0.681974
v 0.564767 1.329722 0.432638
v -0.585988 1.329722 0.403430
v -0.236941 1.329722 0.670818
v -0.564767 1.329722 -0.432638
v -0.711205 1.329722 -0.018047
v 0.236941 1.329722 -0.670818
v -0.202608 1.329722 -0.681974
v 0.570630 1.703749 0.201552
v -0.015358 1.703750 0.604984
v -0.580120 1.703748 0.172348
v -0.343182 1.703750 -0.498466
v 0.368024 1.703749 -0.480417
v 0.212093 2.215657 0.308069
v 0.358534 2.215655 -0.106517
v -0.227451 2.215656 0.296911
v -0.352667 2.215656 -0.124564
v 0.009488 2.215657 -0.373898
v 0.173783 2.101959 0.534859
v -0.454980 2.101959 0.330558
v -0.454980 2.101959 -0.330558
v 0.173783 2.101959 -0.534859
v 0.562385 2.101957 0.000000
v 0.000000 3.406214 0.000000
v 0.597993 1.820763 0.194297
v 0.597993 1.820763 -0.194297
v 0.000000 1.820763 0.628766
v 0.369579 1.820763 0.508682
v -0.597993 1.820763 0.194297
v -0.369579 1.820763 0.508682
v -0.369579 1.820763 -0.508682
v -0.597993 1.820763 -0.194297
v 0.369579 1.820763 -0.508682
v 0.000000 1.820763 -0.628766
v 0.432710 2.151328 0.314381
v -0.165283 2.151329 0.508679
v -0.534858 2.151328 0.000000
v -0.165283 2.151329 -0.508679
v 0.432710 2.151328 -0.314381
v 0.102147 2.603753 0.314380
v 0.330561 2.603751 -0.000000
v -0.267428 2.603752 0.194296
v -0.267428 2.603752 -0.194296
v 0.102146 2.603753 -0.314380
vt 0.181819 0.314921
vt 0.272728 0.314921
vt 0.227273 0.393651
vt 0.000000 0.314921
vt 0.090910 0.314921
vt 0.045455 0.393651
vt 0.727273 0.314921
vt 0.818182 0.314921
vt 0.772727 0.393651
vt 0.545455 0.314921
vt 0.636364 0.314921
vt 0.590909 0.393651
vt 0.363637 0.314921
vt 0.454546 0.314921
vt 0.409092 0.393651
vt 0.500000 0.393651
vt 0.454546 0.472382
vt 0.681818 0.393651
vt 0.636364 0.472382
vt 0.863636 0.393651
vt 0.818182 0.472382
vt 0.909091 0.314921
vt 0.136365 0.393651
vt 0.090910 0.472382
vt 0.318182 0.393651
vt 0.272728 0.472382
vt 0.409092 0.236191
vt 0.500000 0.236191
vt 0.590909 0.236191
vt 0.681818 0.236191
vt 0.772727 0.236191
vt 0.863636 0.236191
vt 0.045455 0.236191
vt 0.136365 0.236191
vt 0.227273 0.236191
vt 0.318182 0.236191
vt 0.181819 0.314921
vt 0.272728 0.314921
vt 0.227273 0.393651
vt 0.000000 0.314921
vt 0.090910 0.314921
vt 0.045455 0.393651
vt 0.727273 0.314921
vt 0.818182 0.314921
vt 0.772727 0.393651
vt 0.545455 0.314921
vt 0.636364 0.314921
vt 0.590909 0.393651
vt 0.363637 0.314921
vt 0.454546 0.314921
vt 0.409092 0.393651
vt 0.500000 0.393651
vt 0.454546 0.472382
vt 0.681818 0.393651
vt 0.636364 0.472382
vt 0.863636 0.393651
vt 0.818182 0.472382
vt 0.909091 0.314921
vt 0.136365 0.393651
vt 0.090910 0.472382
vt 0.318182 0.393651
vt 0.272728 0.472382
vt 0.409092 0.236191
vt 0.500000 0.236191
vt 0.590909 0.236191
vt 0.681818 0.236191
vt 0.772727 0.236191
vt 0.863636 0.236191
vt 0.045455 0.236191
vt 0.136365 0.236191
vt 0.227273 0.236191
vt 0.318182 0.236191
vt 0.181819 0.314921
vt 0.272728 0.314921
vt 0.227273 0.393651
vt 0.000000 0.314921
vt 0.090910 0.314921
vt 0.045455 0.393651
vt 0.727273 0.314921
vt 0.818182 0.314921
vt 0.772727 0.393651
vt 0.545455 0.314921
vt 0.636364 0.314921
vt 0.590909 0.393651
vt 0.363637 0.314921
vt 0.454546 0.314921
vt 0.409092 0.393651
vt 0.500000 0.393651
vt 0.454546 0.472382
vt 0.681818 0.393651
vt 0.636364 0.472382
vt 0.863636 0.393651
vt 0.818182 0.472382
vt 0.909091 0.314921
vt 0.136365 0.393651
vt 0.090910 0.472382
vt 0.318182 0.393651
vt 0.272728 0.472382
vt 0.409092 0.236191
vt 0.500000 0.236191
vt 0.590909 0.236191
vt 0.681818 0.236191
vt 0.772727 0.236191
vt 0.863636 0.236191
vt 0.045455 0.236191
vt 0.136365 0.236191
vt 0.227273 0.236191
vt 0.318182 0.236191
vt 0.181819 0.314921
vt 0.272728 0.314921
vt 0.227273 0.393651
vt 0.000000 0.314921
vt 0.090910 0.314921
vt 0.045455 0.393651
vt 0.727273 0.314921
vt 0.818182 0.314921
vt 0.772727 0.393651
vt 0.545455 0.314921
vt 0.636364 0.314921
vt 0.590909 0.393651
vt 0.363637 0.314921
vt 0.454546 0.314921
vt 0.409092 0.393651
vt 0.500000 0.393651
vt 0.454546 0.472382
vt 0.681818 0.393651
vt 0.636364 0.472382
vt 0.863636 0.393651
vt 0.818182 0.472382
vt 0.909091 0.314921
vt 0.136365 0.393651
vt 0.090910 0.472382
vt 0.318182 0.393651
vt 0.272728 0.472382
vt 0.409092 0.236191
vt 0.500000 0.236191
vt 0.590909 0.236191
vt 0.681818 0.236191
vt 0.772727 0.236191
vt 0.863636 0.236191
vt 0.045455 0.236191
vt 0.136365 0.236191
vt 0.227273 0.236191
vt 0.318182 0.236191
vn 0.8581 0.4008 0.3210
vn -0.0401 0.4008 0.9153
vn -0.8829 0.4008 0.2447
vn -0.5056 0.4008 -0.7641
vn 0.5705 0.4007 -0.7169
vn 0.3444 0.3162 -0.8840
vn 0.3125 0.5089 -0.8021
vn 0.0648 0.4008 -0.9139
vn -0.7343 0.3162 -0.6007
vn -0.6663 0.5089 -0.5451
vn -0.8491 0.4008 -0.3441
vn -0.7982 0.3162 0.5128
vn -0.7243 0.5089 0.4653
vn -0.5896 0.4008 0.7012
vn 0.2410 0.3162 0.9176
vn 0.2187 0.5089 0.8326
vn 0.4847 0.4008 0.7775
vn 0.9471 0.3162 0.0544
vn 0.8594 0.5089 0.0493
vn 0.8892 0.4007 -0.2207
vn 0.5783 0.3304 -0.7460
vn 0.0787 0.3304 -0.9406
vn -0.5308 0.3304 -0.7805
vn -0.8702 0.3304 -0.3655
vn -0.9063 0.3304 0.2636
vn -0.6166 0.3304 0.7146
vn -0.0294 0.3304 0.9434
vn 0.4891 0.3304 0.8072
vn 0.8881 0.3304 0.3194
vn 0.9189 0.3304 -0.2158
vn 0.7212 0.4008 0.5650
vn -0.3145 0.4008 0.8605
vn -0.9156 0.4008 -0.0332
vn -0.2513 0.4008 -0.8810
vn 0.7603 0.4007 -0.5113
vn 0.5951 0.3162 -0.7388
vn 0.5400 0.5089 -0.6704
vn 0.3377 0.4008 -0.8517
vn -0.5188 0.3162 -0.7943
vn -0.4707 0.5089 -0.7208
vn -0.7057 0.4008 -0.5843
vn -0.9157 0.3162 0.2479
vn -0.8309 0.5089 0.2249
vn -0.7738 0.4008 0.4906
vn -0.0472 0.3162 0.9475
vn -0.0428 0.5089 0.8598
vn 0.2274 0.4008 0.8875
vn 0.8866 0.3162 0.3377
vn 0.8045 0.5089 0.3064
vn 0.9144 0.4007 0.0580
vn 0.7764 0.3304 -0.5366
vn 0.3590 0.3304 -0.8729
vn -0.2704 0.3304 -0.9043
vn -0.7193 0.3304 -0.6112
vn -0.9436 0.3304 -0.0222
vn -0.8035 0.3304 0.4952
vn -0.3127 0.3304 0.8905
vn 0.2227 0.3304 0.9172
vn 0.7503 0.3304 0.5726
vn 0.9411 0.3304 0.0717
vn 0.7348 0.4008 0.5473
vn -0.2934 0.4008 0.8679
vn -0.9161 0.4008 -0.0109
vn -0.2728 0.4008 -0.8746
vn 0.7475 0.4007 -0.5297
vn 0.5769 0.3162 -0.7531
vn 0.5235 0.5089 -0.6834
vn 0.3168 0.4008 -0.8597
vn -0.5380 0.3162 -0.7814
vn -0.4882 0.5089 -0.7091
vn -0.7197 0.4008 -0.5669
vn -0.9094 0.3162 0.2702
vn -0.8252 0.5089 0.2452
vn -0.7616 0.4008 0.5093
vn -0.0241 0.3162 0.9484
vn -0.0218 0.5089 0.8606
vn 0.2490 0.4008 0.8817
vn 0.8945 0.3162 0.3160
vn 0.8117 0.5089 0.2867
vn 0.9155 0.4007 0.0356
vn 0.7631 0.3304 -0.5554
vn 0.3376 0.3304 -0.8814
vn -0.2924 0.3304 -0.8974
vn -0.7340 0.3304 -0.5934
vn -0.9438 0.3304 0.0008
vn -0.7912 0.3304 0.5147
vn -0.2909 0.3304 0.8979
vn 0.2450 0.3304 0.9115
vn 0.7641 0.3304 0.5541
vn 0.9426 0.3304 0.0487
vn 0.5485 0.4008 0.7339
vn -0.5285 0.4008 0.7484
vn -0.8751 0.4008 -0.2713
vn -0.0124 0.4008 -0.9161
vn 0.8674 0.4007 -0.2949
vn 0.7675 0.3162 -0.5576
vn 0.6964 0.5089 -0.5060
vn 0.5485 0.4008 -0.7339
vn -0.2932 0.3162 -0.9023
vn -0.2660 0.5089 -0.8187
vn -0.5285 0.4008 -0.7484
vn -0.9487 0.3162 0.0000
vn -0.8609 0.5089 0.0000
vn -0.8751 0.4008 0.2713
vn -0.2932 0.3162 0.9023
vn -0.2660 0.5089 0.8187
vn -0.0124 0.4008 0.9161
vn 0.7675 0.3162 0.5576
vn 0.6964 0.5089 0.5060
vn 0.8674 0.4007 0.2949
vn 0.8897 0.3304 -0.3151
vn 0.5746 0.3304 -0.7488
vn -0.0247 0.3304 -0.9435
vn -0.5346 0.3304 -0.7779
vn -0.9050 0.3304 -0.2680
vn -0.9050 0.3304 0.2680
vn -0.5346 0.3304 0.7779
vn -0.0247 0.3304 0.9435
vn 0.5746 0.3304 0.7488
vn 0.8897 0.3304 0.3151
usemtl None
s off
f 1/1/1 17/2/1 22/3/1
f 2/4/2 18/5/2 24/6/2
f 3/7/3 19/8/3 25/9/3
f 4/10/4 20/11/4 26/12/4
f 5/13/5 21/14/5 23/15/5
f 23/15/6 26/16/6 6/17/6
f 23/15/7 21/14/7 26/16/7
f 21/14/8 4/10/8 26/16/8
f 26/12/9 25/18/9 6/19/9
f 26/12/10 20/11/10 25/18/10
f 20/11/11 3/7/11 25/18/11
f 25/9/12 24/20/12 6/21/12
f 25/9/13 19/8/13 24/20/13
f 19/8/14 2/22/14 24/20/14
f 24/6/15 22/23/15 6/24/15
f 24/6/16 18/5/16 22/23/16
f 18/5/17 1/1/17 22/23/17
f 22/3/18 23/25/18 6/26/18
f 22/3/19 17/2/19 23/25/19
f 17/2/20 5/13/20 23/25/20
f 8/27/21 21/14/21 5/13/21
f 15/28/22 4/10/22 21/14/22
f 16/29/23 20/11/23 4/10/23
f 13/30/24 3/7/24 20/11/24
f 14/31/25 19/8/25 3/7/25
f 11/32/26 2/22/26 19/8/26
f 12/33/27 18/5/27 2/4/27
f 9/34/28 1/1/28 18/5/28
f 10/35/29 17/2/29 1/1/29
f 7/36/30 5/13/30 17/2/30
f 27/37/31 43/38/31 48/39/31
f 28/40/32 44/41/32 50/42/32
f 29/43/33 45/44/33 51/45/33
f 30/46/34 46/47/34 52/48/34
f 31/49/35 47/50/35 49/51/35
f 49/51/36 52/52/36 32/53/36
f 49/51/37 47/50/37 52/52/37
f 47/50/38 30/46/38 52/52/38
f 52/48/39 51/54/39 32/55/39
f 52/48/40 46/47/40 51/54/40
f 46/47/41 29/43/41 51/54/41
f 51/45/42 50/56/42 32/57/42
f 51/45/43 45/44/43 50/56/43
f 45/44/44 28/58/44 50/56/44
f 50/42/45 48/59/45 32/60/45
f 50/42/46 44/41/46 48/59/46
f 44/41/47 27/37/47 48/59/47
f 48/39/48 49/61/48 32/62/48
f 48/39/49 43/38/49 49/61/49
f 43/38/50 31/49/50 49/61/50
f 34/63/51 47/50/51 31/49/51
f 41/64/52 30/46/52 47/50/52
f 42/65/53 46/47/53 30/46/53
f 39/66/54 29/43/54 46/47/54
f 40/67/55 45/44/55 29/43/55
f 37/68/56 28/58/56 45/44/56
f 38/69/57 44/41/57 28/40/57
f 35/70/58 27/37/58 44/41/58
f 36/71/59 43/38/59 27/37/59
f 33/72/60 31/49/60 43/38/60
f 53/73/61 69/74/61 74/75/61
f 54/76/62 70/77/62 76/78/62
f 55/79/63 71/80/63 77/81/63
f 56/82/64 72/83/64 78/84/64
f 57/85/65 73/86/65 75/87/65
f 75/87/66 78/88/66 58/89/66
f 75/87/67 73/86/67 78/88/67
f 73/86/68 56/82/68 78/88/68
f 78/84/69 77/90/69 58/91/69
f 78/84/70 72/83/70 77/90/70
f 72/83/71 55/79/71 77/90/71
f 77/81/72 76/92/72 58/93/72
f 77/81/73 71/80/73 76/92/73
f 71/80/74 54/94/74 76/92/74
f 76/78/75 74/95/75 58/96/75
f 76/78/76 70/77/76 74/95/76
f 70/77/77 53/73/77 74/95/77
f 74/75/78 75/97/78 58/98/78
f 74/75/79 69/74/79 75/97/79
f 69/74/80 57/85/80 75/97/80
f 60/99/81 73/86/81 57/85/81
f 67/100/82 56/82/82 73/86/82
f 68/101/83 72/83/83 56/82/83
f 65/102/84 55/79/84 72/83/84
f 66/103/85 71/80/85 55/79/85
f 63/104/86 54/94/86 71/80/86
f 64/105/87 70/77/87 54/76/87
f 61/106/88 53/73/88 70/77/88
f 62/107/89 69/74/89 53/73/89
f 59/108/90 57/85/90 69/74/90
f 79/109/91 95/110/91 100/111/91
f 80/112/92 96/113/92 102/114/92
f 81/115/93 97/116/93 103/117/93
f 82/118/94 98/119/94 104/120/94
f 83/121/95 99/122/95 101/123/95
f 101/123/96 104/124/96 84/125/96
f 101/123/97 99/122/97 104/124/97
f 99/122/98 82/118/98 104/124/98
f 104/120/99 103/126/99 84/127/99
f 104/120/100 98/119/100 103/126/100
f 98/119/101 81/115/101 103/126/101
f 103/117/102 102/128/102 84/129/102
f 103/117/103 97/116/103 102/128/103
f 97/116/104 80/130/104 102/128/104
f 102/114/105 100/131/105 84/132/105
f 102/114/106 96/113/106 100/131/106
f 96/113/107 79/109/107 100/131/107
f 100/111/108 101/133/108 84/134/108
f 100/111/109 95/110/109 101/133/109
f 95/110/110 83/121/110 101/133/110
f 86/135/111 99/122/111 83/121/111
f 93/136/112 82/118/112 99/122/112
f 94/137/113 98/119/113 82/118/113
f 91/138/114 81/115/114 98/119/114
f 92/139/115 97/116/115 81/115/115
f 89/140/116 80/130/116 97/116/116
f 90/141/117 96/113/117 80/112/117
f 87/142/118 79/109/118 96/113/118
f 88/143/119 95/110/119 79/109/119
f 85/144/120 83/121/120 95/110/120
